# xmcd
#
# Track frame offsets:
#	150
#	12132
#	25762
#	37092
#	48920
#	61830
#	71672
#	84595
#	96954
#	109230
#	119617
#	130970
#
# Disc length: 1910 seconds
#
# Revision: 15
# Processed by: cddbd v1.5.1PL2 Copyright (c) Steve Scherf et al.
# Submitted via: audiograbber 1.83.01
#
DISCID=a107740c
DTITLE=Various Artist - The Best Of Country [CD 3 of 3)
DYEAR=1999
DGENRE=Country
TTITLE0=Skeeter Davis - End Of The World
TTITLE1=David Houston - Almost Persuaded
TTITLE2=Wynn Stewart - It's Such A Pretty World Today
TTITLE3=Henson Cargill - Skip A Rope
TTITLE4=Jerry Wallace - In The Misty Moonlight
TTITLE5=Ned Miller - From A Jack To A King
TTITLE6=Claude King - Wolverton Mountain
TTITLE7=Johnny Russell - Rednecks, White Socks And Blue Ribbon Beer
TTITLE8=Sandy Posey - Young Love
TTITLE9=FerlinHusky - Gone
TTITLE10=Porter Wagoner - Misery Loves Company
TTITLE11=Tommy Cash - Six White Horses
EXTD=YEAR: 1999
EXTT0=
EXTT1=
EXTT2=
EXTT3=
EXTT4=
EXTT5=
EXTT6=
EXTT7=
EXTT8=
EXTT9=
EXTT10=
EXTT11=
PLAYORDER=
